<svg xmlns="http://www.w3.org/2000/svg" width="1200" height="630" viewBox="0 0 1200 630" role="img" aria-labelledby="title desc">
  <title id="title">Mind the Map</title>
  <desc id="desc">A fictional London Tube map builder preview.</desc>
  <defs>
    <linearGradient id="bg" x1="0" y1="0" x2="1" y2="1">
      <stop offset="0" stop-color="#f8fbff"/>
      <stop offset="1" stop-color="#e8f6f8"/>
    </linearGradient>
    <filter id="shadow" x="-20%" y="-20%" width="140%" height="140%">
      <feDropShadow dx="0" dy="12" stdDeviation="14" flood-color="#0f172a" flood-opacity="0.14"/>
    </filter>
  </defs>
  <rect width="1200" height="630" fill="url(#bg)"/>
  <g fill="none" stroke-linecap="round" stroke-linejoin="round" opacity="0.42">
    <path d="M-40 382 H220 L350 278 H535 L652 372 H820 L980 246 H1240" stroke="#e11d2a" stroke-width="10"/>
    <path d="M86 122 H258 L390 252 L535 252 L692 108 H885 L1030 220" stroke="#2997d8" stroke-width="7"/>
    <path d="M120 514 L278 388 L500 388 L670 508 L885 508 L1010 394" stroke="#35a464" stroke-width="7"/>
    <path d="M310 -30 V116 L430 236 V380 L548 500 V670" stroke="#f6c343" stroke-width="6"/>
  </g>
  <g fill="#ffffff" stroke="#0f172a" stroke-width="4" opacity="0.75">
    <circle cx="220" cy="382" r="10"/>
    <circle cx="350" cy="278" r="10"/>
    <circle cx="535" cy="278" r="10"/>
    <circle cx="652" cy="372" r="10"/>
    <circle cx="820" cy="372" r="10"/>
    <circle cx="980" cy="246" r="10"/>
    <circle cx="258" cy="122" r="8"/>
    <circle cx="390" cy="252" r="8"/>
    <circle cx="692" cy="108" r="8"/>
    <circle cx="885" cy="108" r="8"/>
  </g>
  <rect x="64" y="346" width="676" height="198" rx="24" fill="#ffffff" filter="url(#shadow)"/>
  <g transform="translate(102 390)">
    <rect x="0" y="0" width="92" height="92" rx="20" fill="#f8fafc" stroke="#d7e0ea" stroke-width="2"/>
    <path d="M18 62 L40 42 L62 42" fill="none" stroke="#e11d2a" stroke-width="11" stroke-linecap="round" stroke-linejoin="round"/>
    <path d="M40 42 L64 20" fill="none" stroke="#2997d8" stroke-width="11" stroke-linecap="round" stroke-linejoin="round"/>
    <circle cx="18" cy="62" r="9" fill="#ffffff" stroke="#0f172a" stroke-width="4"/>
    <circle cx="40" cy="42" r="9" fill="#ffffff" stroke="#0f172a" stroke-width="4"/>
    <circle cx="64" cy="20" r="9" fill="#ffffff" stroke="#0f172a" stroke-width="4"/>
  </g>
  <text x="222" y="436" fill="#071126" font-family="Arial, Helvetica, sans-serif" font-size="58" font-weight="800">Mind the Map</text>
  <text x="224" y="490" fill="#24324a" font-family="Arial, Helvetica, sans-serif" font-size="31" font-weight="500">Build your own London Tube network</text>
  <g transform="translate(904 74)">
    <rect width="230" height="268" rx="18" fill="#ffffff" stroke="#d7e0ea" stroke-width="2" filter="url(#shadow)"/>
    <text x="24" y="44" fill="#0f172a" font-family="Arial, Helvetica, sans-serif" font-size="22" font-weight="800">Line colour</text>
    <rect x="24" y="68" width="38" height="38" rx="9" fill="#e11d2a"/>
    <rect x="74" y="68" width="38" height="38" rx="9" fill="#f6c343"/>
    <rect x="124" y="68" width="38" height="38" rx="9" fill="#35a464"/>
    <rect x="174" y="68" width="38" height="38" rx="9" fill="#2997d8"/>
    <path d="M30 156 H202" stroke="#e2e8f0" stroke-width="2"/>
    <text x="24" y="196" fill="#0f172a" font-family="Arial, Helvetica, sans-serif" font-size="22" font-weight="800">Selected stops</text>
    <circle cx="40" cy="228" r="13" fill="#e11d2a"/>
    <circle cx="40" cy="260" r="13" fill="#e11d2a"/>
    <text x="66" y="235" fill="#334155" font-family="Arial, Helvetica, sans-serif" font-size="18" font-weight="700">Baker Street</text>
    <text x="66" y="267" fill="#334155" font-family="Arial, Helvetica, sans-serif" font-size="18" font-weight="700">Waterloo</text>
  </g>
</svg>
